<svg xmlns="http://www.w3.org/2000/svg" viewBox="0 0 24 24" fill="none">
  <circle cx="12" cy="12" r="3.25" fill="#ffffff"/>
  <path d="M10.7 1.8a1.3 1.3 0 0 1 2.6 0l.15 1.6a8.8 8.8 0 0 1 1.96.82l1.3-.98a1.3 1.3 0 0 1 1.84.22l.95 1.2a1.3 1.3 0 0 1-.13 1.8l-1.2 1.15c.27.62.47 1.27.58 1.95l1.6.2a1.3 1.3 0 0 1 1.14 1.3v1.52a1.3 1.3 0 0 1-1.14 1.3l-1.6.2a8.8 8.8 0 0 1-.58 1.95l1.2 1.15a1.3 1.3 0 0 1 .13 1.8l-.95 1.2a1.3 1.3 0 0 1-1.84.22l-1.3-.98a8.8 8.8 0 0 1-1.96.82l-.15 1.6a1.3 1.3 0 0 1-2.6 0l-.15-1.6a8.8 8.8 0 0 1-1.96-.82l-1.3.98a1.3 1.3 0 0 1-1.84-.22l-.95-1.2a1.3 1.3 0 0 1 .13-1.8l1.2-1.15a8.8 8.8 0 0 1-.58-1.95l-1.6-.2A1.3 1.3 0 0 1 1 12.58v-1.52a1.3 1.3 0 0 1 1.14-1.3l1.6-.2c.11-.68.31-1.33.58-1.95l-1.2-1.15a1.3 1.3 0 0 1-.13-1.8l.95-1.2a1.3 1.3 0 0 1 1.84-.22l1.3.98c.62-.36 1.28-.63 1.96-.82l.15-1.6z" fill="#2c3e50"/>
</svg>
